<svg xmlns="http://www.w3.org/2000/svg" data-name="Ebene 1" viewBox="0 0 60 35">
  <path d="m55.9 23.35-1.53 1.53v2.27l1.53 1.53h2.27l1.53-1.53v-2.27l-1.53-1.53H55.9ZM4.17 5.65.25 9.57v4.66l1.57 2.56 10.77 3.71.58.95v.95l-1.32 1.32H6.12l-4.71-1.57-1.4 4.17 5.2 1.73H14l3.92-3.92v-4.74l-1.57-2.56-10.77-3.71-.58-.95v-.87l1.32-1.32h5.78l4.7 1.57 1.4-4.17-5.19-1.73H4.17Zm36.02.53 1.28 5.24v16.63h4.74V12.58l2.27-2.6h3.59l3.71 3.63 3.14-3.21-4.87-4.75H47.2l-2.39 2.76-.79-3.18-3.84.95ZM23.76 0v6.06h-3.71v4.34h3.71v13.74l3.92 3.92h5.36l5.28-1.66-1.28-4.08-4.5 1.4h-2.76l-1.28-1.28V10.4h5.98V6.06H28.5V0h-4.74Z" fill="#ff3eb5"/>
</svg>